<svg t="1651202956917" version="1.1" xmlns="http://www.w3.org/2000/svg" p-id="9198" data-spm-anchor-id="a313x.7781069.0.i8" width="200" height="200"><path d="M832.73386667 439.07733333c-56.89386667-56.89386667-131.0688-90.20906667-210.6848-95.09546666-5.18826667-14.3744-9.8528-29.9968-13.81866667-47.408-5.7664-25.33973333-10.03733333-54.48746667-12.24746667-89.13493334-0.53973333-8.45333333-0.95466667-17.23733333-1.24053333-26.37226666-0.2752-8.85973333-0.4288-18.05546667-0.44906667-27.6-0.03306667-0.0032-0.06293333-0.0064-0.096-0.01386667 0.02453333-0.24106667 0.06506667-0.48 0.0928-0.7232 6.29226667-55.136 53.97866667-97.88373333 111.1328-96.24853333 40.27413333 1.15093333 75.41973333 24.58346667 93.18826667 58.46506666l53.72266667-10.3232c-21.1424-52.64426667-69.30453333-91.65226667-127.33973334-99.6128-93.27146667-12.7936-174.1472 54.57173333-183.51253333 142.96106667-0.07786667 0.7392-0.12693333 2.6432-0.15573333 3.3856l-0.00106667 7.12106667c0.0192 6.29653333 0.17066667 16.09813333 0.57493333 27.38133333 0.1952 5.49653333 0.44693333 10.912 0.7392 16.26773333 2.96 54.19626667 10.8544 101.2448 23.90933334 142.77333334 0.032 0.096 0.0608 0.1888 0.09173333 0.28586666-29.62026667 3.12746667-58.368 10.22933333-85.6256 21.0272l-0.0192 0.00213334-0.03626667 0.01813333c-40.91946667 16.2176-78.47466667 40.78186667-110.53546666 72.84373333l10.17386666-9.10293333c-43.39413333 42.3456-70.38506667 101.4272-70.38506666 166.704 0 31.7472 6.38933333 62.02453333 17.93813333 89.63306667 27.54666667 65.85386667 84.48533333 116.45866667 154.3296 135.33973333 18.36906667 5.73333333 37.89333333 8.82346667 58.12693333 8.82346667 10.784 0 21.36426667-0.8928 31.67786667-2.58026667 92.7712-15.184 163.79306667-95.8944 163.79306667-192.89386667 0-22.15786667-3.71306667-43.4656-10.5376-63.33653333-14.01813333-58.02133333-36.58026667-97.55306667-58.58346667-136.06506667-6.7072-11.744-13.34826667-23.37386667-19.73226667-35.45706666 10.87786667 1.83253333 21.54026667 4.30826667 31.94773334 7.38666666 113.36106667 33.54026667 196.31786667 138.60906667 196.31786666 262.70293334 0 63.87413333-21.9808 122.70933333-58.77013333 169.34613333-26.11626667 29.22026667-56.63893333 54.41386667-90.5184 74.53973333-57.12426667 33.9296-123.7664 53.45066667-194.88853333 53.45066667-29.22986667 0-57.70026667-3.30666667-85.07093334-9.54026667-170.27733333-38.78933333-297.7408-191.41866667-297.7408-373.26933333 0-189.43786667 138.32533333-347.15093333 319.2704-377.5072l-6.9824-52.6176c-89.40053333 14.46506667-171.82613333 56.34026667-237.19573333 121.53066667-81.632 81.40693333-127.81546667 192.27733333-128.08106667 307.56373333-0.26986667 117.1616 45.37706667 227.3312 128.43093334 309.9744 82.7008 82.2912 195.40266667 128.05546667 312.06293333 126.82986667 77.7824-0.816 152.3136-21.9008 217.5648-60.72533334 28.80746667-15.16586667 55.48266667-34.74453333 79.1584-58.42026666 8.56853333-8.56853333 16.5824-17.5424 24.06293333-26.85226667 46.44053333-57.7888 71.6832-129.09973333 71.6832-204.30186667 0-33.34293333-4.97173333-65.91573333-14.5408-96.89066666-15.49013333-50.14613333-43.04106667-96.096-81.20746666-134.2624ZM396.01706667 416.17706667c0.8224-0.6752 1.6608-1.33226667 2.49386666-1.9968-0.89066667 0.70613333-1.776 1.41973333-2.65706666 2.13973333l0.16106666-0.14293333ZM674.5888 586.50773333c3.54773333 15.07946667 6.43306667 31.5584 8.48426667 49.88266667-0.6688 69.67146667-51.59146667 127.53813333-118.18666667 139.01973333-7.1008 0.8544-14.3232 1.30666667-21.648 1.30666667-15.76426667 0-31.05706667-2.04373333-45.6384-5.86666667-77.24266667-20.256-134.39573333-90.66026667-134.39573333-174.16746666 0-23.88373333 4.68586667-46.69013333 13.16906666-67.56373334 10.76906667-26.4992 27.66506667-49.8784 48.9312-68.3552 3.74826667-3.16053333 7.57546667-6.22613333 11.4912-9.18293333 42.1248-31.82613333 93.69386667-51.7792 149.69173334-54.8352 4.71253333 10.31893333 9.5968 20.0576 14.56426666 29.424 5.2928 9.97973333 10.6784 19.54133333 16.0384 28.95253333 1.2896 2.26346667 2.57706667 4.51733333 3.86133334 6.76586667 21.13493333 36.99093333 41.3568 72.42346667 53.63733333 124.6208Z" fill="#d81e06" p-id="9199" data-spm-anchor-id="a313x.7781069.0.i9" class="selected"></path><path d="M832.73386667 439.07733333c-56.89386667-56.89386667-131.0688-90.20906667-210.6848-95.09546666-5.18826667-14.3744-9.8528-29.9968-13.81866667-47.408-5.7664-25.33973333-10.03733333-54.48746667-12.24746667-89.13493334-0.53973333-8.45333333-0.95466667-17.23733333-1.24053333-26.37226666-0.2752-8.85973333-0.4288-18.05546667-0.44906667-27.6-0.03306667-0.0032-0.06293333-0.0064-0.096-0.01386667 0.02453333-0.24106667 0.06506667-0.48 0.0928-0.7232 6.29226667-55.136 53.97866667-97.88373333 111.1328-96.24853333 40.27413333 1.15093333 75.41973333 24.58346667 93.18826667 58.46506666l53.72266667-10.3232c-21.1424-52.64426667-69.30453333-91.65226667-127.33973334-99.6128-93.27146667-12.7936-174.1472 54.57173333-183.51253333 142.96106667-0.07786667 0.7392-0.12693333 2.6432-0.15573333 3.3856l-0.00106667 7.12106667c0.0192 6.29653333 0.17066667 16.09813333 0.57493333 27.38133333 0.1952 5.49653333 0.44693333 10.912 0.7392 16.26773333 2.96 54.19626667 10.8544 101.2448 23.90933334 142.77333334 0.032 0.096 0.0608 0.1888 0.09173333 0.28586666-29.62026667 3.12746667-58.368 10.22933333-85.6256 21.0272l-0.0192 0.00213334-0.03626667 0.01813333c-40.91946667 16.2176-78.47466667 40.78186667-110.53546666 72.84373333l10.17386666-9.10293333c-43.39413333 42.3456-70.38506667 101.4272-70.38506666 166.704 0 31.7472 6.38933333 62.02453333 17.93813333 89.63306667 27.54666667 65.85386667 84.48533333 116.45866667 154.3296 135.33973333 18.36906667 5.73333333 37.89333333 8.82346667 58.12693333 8.82346667 10.784 0 21.36426667-0.8928 31.67786667-2.58026667 92.7712-15.184 163.79306667-95.8944 163.79306667-192.89386667 0-22.15786667-3.71306667-43.4656-10.5376-63.33653333-14.01813333-58.02133333-36.58026667-97.55306667-58.58346667-136.06506667-6.7072-11.744-13.34826667-23.37386667-19.73226667-35.45706666 10.87786667 1.83253333 21.54026667 4.30826667 31.94773334 7.38666666 113.36106667 33.54026667 196.31786667 138.60906667 196.31786666 262.70293334 0 63.87413333-21.9808 122.70933333-58.77013333 169.34613333-26.11626667 29.22026667-56.63893333 54.41386667-90.5184 74.53973333-57.12426667 33.9296-123.7664 53.45066667-194.88853333 53.45066667-29.22986667 0-57.70026667-3.30666667-85.07093334-9.54026667-170.27733333-38.78933333-297.7408-191.41866667-297.7408-373.26933333 0-189.43786667 138.32533333-347.15093333 319.2704-377.5072l-6.9824-52.6176c-89.40053333 14.46506667-171.82613333 56.34026667-237.19573333 121.53066667-81.632 81.40693333-127.81546667 192.27733333-128.08106667 307.56373333-0.26986667 117.1616 45.37706667 227.3312 128.43093334 309.9744 82.7008 82.2912 195.40266667 128.05546667 312.06293333 126.82986667 77.7824-0.816 152.3136-21.9008 217.5648-60.72533334 28.80746667-15.16586667 55.48266667-34.74453333 79.1584-58.42026666 8.56853333-8.56853333 16.5824-17.5424 24.06293333-26.85226667 46.44053333-57.7888 71.6832-129.09973333 71.6832-204.30186667 0-33.34293333-4.97173333-65.91573333-14.5408-96.89066666-15.49013333-50.14613333-43.04106667-96.096-81.20746666-134.2624ZM396.01706667 416.17706667c0.8224-0.6752 1.6608-1.33226667 2.49386666-1.9968-0.89066667 0.70613333-1.776 1.41973333-2.65706666 2.13973333l0.16106666-0.14293333ZM674.5888 586.50773333c3.54773333 15.07946667 6.43306667 31.5584 8.48426667 49.88266667-0.6688 69.67146667-51.59146667 127.53813333-118.18666667 139.01973333-7.1008 0.8544-14.3232 1.30666667-21.648 1.30666667-15.76426667 0-31.05706667-2.04373333-45.6384-5.86666667-77.24266667-20.256-134.39573333-90.66026667-134.39573333-174.16746666 0-23.88373333 4.68586667-46.69013333 13.16906666-67.56373334 10.76906667-26.4992 27.66506667-49.8784 48.9312-68.3552 3.74826667-3.16053333 7.57546667-6.22613333 11.4912-9.18293333 42.1248-31.82613333 93.69386667-51.7792 149.69173334-54.8352 4.71253333 10.31893333 9.5968 20.0576 14.56426666 29.424 5.2928 9.97973333 10.6784 19.54133333 16.0384 28.95253333 1.2896 2.26346667 2.57706667 4.51733333 3.86133334 6.76586667 21.13493333 36.99093333 41.3568 72.42346667 53.63733333 124.6208Z" fill="#d81" p-id="9199" data-spm-anchor-id="a313x.7781069.0.i9" class="selected"></path></svg>