<svg
    xmlns="http://www.w3.org/2000/svg"
    width="120"
    height="120"
    viewBox="0 0 120 120"
    class="svg-box"
>
    <g fill="none" fill-rule="evenodd" >
        <path stroke="#C8C9CC" stroke-width="7" d="M20.657 107c-.422 0-.834-.014-1.225-.04-1.63-.116-2.62-.5-3.029-1.176-.552-.917.025-2.22.635-3.601.329-.682.595-1.392.795-2.122l.117-.507c.522-2.25 1.61-6.933.8-10.059a45.674 45.674 0 01-8.63-13.586A42.2 42.2 0 0111.165 41.7a46.975 46.975 0 0111.357-14.937 53.67 53.67 0 0116.846-10.07 59.469 59.469 0 0141.26 0 53.685 53.685 0 0116.849 10.07A46.99 46.99 0 01108.834 41.7a42.246 42.246 0 010 36.581 46.964 46.964 0 01-11.357 14.937 53.645 53.645 0 01-16.848 10.071 59.465 59.465 0 01-41.212.018h-.215a30.31 30.31 0 00-7.62 1.597l-.074.02-.798.233A37.015 37.015 0 0120.656 107z"></path>
        <path class="will-show" stroke="#4C9AF2" stroke-width="7" stroke-dasharray="330" stroke-dashoffset="330" d="M20.657 107c-.422 0-.834-.014-1.225-.04-1.63-.116-2.62-.5-3.029-1.176-.552-.917.025-2.22.635-3.601.329-.682.595-1.392.795-2.122l.117-.507c.522-2.25 1.61-6.933.8-10.059a45.674 45.674 0 01-8.63-13.586A42.2 42.2 0 0111.165 41.7a46.975 46.975 0 0111.357-14.937 53.67 53.67 0 0116.846-10.07 59.469 59.469 0 0141.26 0 53.685 53.685 0 0116.849 10.07A46.99 46.99 0 01108.834 41.7a42.246 42.246 0 010 36.581 46.964 46.964 0 01-11.357 14.937 53.645 53.645 0 01-16.848 10.071 59.465 59.465 0 01-41.212.018h-.215a30.31 30.31 0 00-7.62 1.597l-.074.02-.798.233A37.015 37.015 0 0120.656 107z"></path>
        <path fill="#C8C9CC" fill-rule="nonzero" d="M47.6 76V63.76h9.8V76h7.12V46.2H57.4v11.36h-9.8V46.2h-7.16V76z"></path>
        <path fill="#C8C9CC" fill-rule="nonzero" d="M77.96 76V53.24h-7.12V76z"></path>
        <path fill="#C8C9CC" fill-rule="nonzero" d="M74.4 50.08c2.36 0 3.96-1.44 3.96-3.68 0-2.2-1.6-3.64-3.96-3.64-2.4 0-3.96 1.44-3.96 3.64 0 2.24 1.56 3.68 3.96 3.68z"></path>
    </g>
</svg>