<svg t="1651047960623" class="icon" viewBox="0 0 1024 1024" version="1.1" xmlns="http://www.w3.org/2000/svg" p-id="27977" width="200" height="200"><path d="M512 107.89c54.48 0 107.32 10.68 157.03 31.73 48.04 20.35 91.2 49.49 128.27 86.61 37.08 37.13 66.18 80.35 86.5 128.47 21.03 49.8 31.7 102.72 31.7 157.3s-10.67 107.51-31.7 157.3c-20.32 48.12-49.43 91.34-86.5 128.47-37.07 37.12-80.23 66.26-128.27 86.61-49.71 21.05-102.54 31.73-157.03 31.73s-107.32-10.68-157.03-31.73c-48.04-20.35-91.2-49.49-128.27-86.61-37.08-37.13-66.18-80.35-86.5-128.47-21.03-49.8-31.7-102.72-31.7-157.3s10.67-107.51 31.7-157.3c20.32-48.12 49.43-91.34 86.5-128.47 37.07-37.12 80.23-66.26 128.27-86.61 49.71-21.05 102.55-31.73 157.03-31.73m0-44C264.85 63.89 64.5 264.52 64.5 512S264.85 960.11 512 960.11 959.5 759.48 959.5 512 759.15 63.89 512 63.89z" p-id="27978"></path><path d="M512.19 575.88L615.6 315.72h87.92v392.56h-54.88V382.36l0.55-0.48c-22.4 54.32-89.6 218.68-112 273h-48l-116-273 0.49 0.48v325.92h-53.2V315.72h89.6l102.11 260.16z" p-id="27979"></path></svg>