<!-- <svg t="1651047175490" class="icon" viewBox="0 0 1024 1024" version="1.1" xmlns="http://www.w3.org/2000/svg" p-id="9823" data-spm-anchor-id="a313x.7781069.0.i10" width="200" height="200"><path d="M918.3 74.7c-13.3-11.2-30.8-15.9-47.9-12.8l-503.3 88.8c-28.1 5-48.5 29.3-48.5 57.8v500.8c-24.9-21.2-57.1-34.1-92.3-34.1-78.6 0-142.6 64-142.6 142.6s64 142.6 142.6 142.6 142.6-64 142.6-142.6V369.2L889 277.4v331.2c-24.9-21.2-57.1-34.1-92.3-34.1-78.6 0-142.6 64-142.6 142.6s64 142.6 142.6 142.6 142.6-64 142.6-142.6V119.7c0-17.4-7.6-33.8-21-45zM226.3 910c-50.9 0-92.3-41.4-92.3-92.3s41.4-92.3 92.3-92.3 92.3 41.4 92.3 92.3-41.4 92.3-92.3 92.3z m142.6-591.9V208.5c0-4.1 2.9-7.6 6.9-8.3l503.3-88.8c3.4-0.5 5.7 0.9 6.8 1.9 1.1 0.9 3 3 3 6.4v106.7l-520 91.7z m427.8 491.3c-50.9 0-92.3-41.4-92.3-92.3s41.4-92.3 92.3-92.3 92.3 41.4 92.3 92.3-41.4 92.3-92.3 92.3z" p-id="9824"></path></svg> -->
<svg t="1651055392114" class="icon" viewBox="0 0 1024 1024" version="1.1" xmlns="http://www.w3.org/2000/svg" p-id="1046" width="200" height="200"><path d="M910.37291667 89.0375c-0.065625-0.9 0.01875-1.78125-0.1125-2.7-0.05625-0.384375-0.20625-0.721875-0.271875-1.096875-0.253125-1.490625-0.65625-2.90625-1.06875-4.340625-0.328125-1.134375-0.628125-2.278125-1.05-3.375-0.50625-1.303125-1.14375-2.521875-1.78125-3.75-0.5625-1.096875-1.096875-2.19375-1.753125-3.225-0.721875-1.134375-1.565625-2.175-2.4-3.225-0.75-0.946875-1.4625-1.9125-2.296875-2.775-0.984375-1.040625-2.071875-1.95-3.16875-2.878125-0.834375-0.703125-1.63125-1.44375-2.5125-2.071875-1.25625-0.909375-2.60625-1.659375-3.975-2.41875-0.8625-0.478125-1.6875-0.984375-2.578125-1.396875-1.44375-0.665625-2.953125-1.171875-4.490625-1.66875-0.95625-0.309375-1.89375-0.65625-2.878125-0.890625-1.4625-0.35625-2.971875-0.54375-4.5-0.73125-1.171875-0.15-2.325-0.309375-3.515625-0.35625-0.46875-0.01875-0.9-0.140625-1.36875-0.140625-1.021875 0-1.978125 0.225-2.971875 0.3-0.9 0.065625-1.78125-0.028125-2.690625 0.103125l-559.996875 79.996875c-0.403125 0.05625-0.76875 0.215625-1.1625 0.290625-1.40625 0.24375-2.746875 0.628125-4.096875 1.0125-1.21875 0.346875-2.4375 0.665625-3.6 1.115625-1.2375 0.4875-2.390625 1.096875-3.5625 1.6875-1.153125 0.590625-2.315625 1.153125-3.403125 1.846875-1.06875 0.684375-2.034375 1.471875-3.028125 2.25-1.021875 0.80625-2.0625 1.575-3 2.475-0.9375 0.890625-1.753125 1.875-2.596875 2.85-0.825 0.946875-1.65 1.865625-2.38125 2.8875-0.778125 1.0875-1.415625 2.25-2.08125 3.4125-0.609375 1.059375-1.2375 2.1-1.74375 3.215625-0.553125 1.209375-0.95625 2.475-1.3875 3.740625-0.4125 1.209375-0.834375 2.4-1.134375 3.646875-0.290625 1.246875-0.440625 2.540625-0.609375 3.825-0.1875 1.359375-0.375 2.7-0.4125 4.0875-0.009375 0.421875-0.121875 0.815625-0.121875 1.2375v538.95C247.10104167 698.975 219.81979167 692 190.66354167 692c-88.21875 0-160.003125 62.8125-160.003125 139.996875s71.775 139.996875 160.003125 139.996875S350.66666667 909.190625 350.66666667 831.996875V406.690625l480-68.56875v292.81875c-23.56875-11.971875-50.840625-18.946875-79.996875-18.946875-88.21875 0-160.003125 62.8125-160.003125 139.996875s71.775 139.996875 160.003125 139.996875 160.003125-62.8125 160.003125-139.996875V92c-0.009375-1.0125-0.225-1.96875-0.3-2.9625zM190.66354167 891.996875c-43.359375 0-79.996875-27.478125-79.996875-60s36.6375-60 79.996875-60 79.996875 27.478125 79.996875 60-36.6375 60-79.996875 60zM350.66666667 325.878125V206.69375l480-68.56875v119.184375l-480 68.56875zM750.66979167 812c-43.359375 0-79.996875-27.478125-79.996875-60s36.6375-60 79.996875-60S830.66666667 719.478125 830.66666667 752s-36.6375 60-79.996875 60z" p-id="1047"></path></svg>