<svg t="1651056089920" class="icon" viewBox="0 0 1024 1024" version="1.1" xmlns="http://www.w3.org/2000/svg" p-id="1077" width="200" height="200"><path d="M793.690625 842.39479167C789.5 692.77916667 698.459375 564.89479167 569.1875 507.39791667c-3.2625-1.603125-7.275-3.39375-12.1875-5.41875 67.66875-46.96875 112.284375-126.84375 112.284375-217.5 0.009375-144.5625-113.165625-261.75-252.73125-261.75s-252.759375 117.1875-252.759375 261.721875C163.79375 375.04166667 208.25 454.72916667 275.684375 501.71666667 138.471875 556.41979167 40.821875 689.10416667 37.55 845.05729167a31.996875 31.996875 0 0 0-0.328125 4.528125v37.809375a31.2 31.2 0 1 0 62.4 0v-37.8a31.134375 31.134375 0 0 0-0.675-6.45C104.1875 672.77291667 243.996875 536.29166667 415.6625 536.29166667c172.36875 0 312.590625 137.625 316.771875 309a31.65 31.65 0 0 0-0.3 4.33125v19.284375c-0.084375 1.678125-0.178125 3.365625-0.290625 5.034375h0.290625v13.48125a31.2 31.2 0 1 0 62.4 0v-37.828125a31.434375 31.434375 0 0 0-0.84375-7.2zM224.046875 284.45104167c0-110.071875 86.175-199.3125 192.50625-199.3125S609.03125 174.41666667 609.03125 284.45104167 522.85625 483.79166667 416.553125 483.79166667s-192.50625-89.26875-192.50625-199.340625z m0 0" p-id="1078"></path><path d="M986.05625 778.26979167A318.75 318.75 0 0 0 791.375 494.10416667c54.15-39.24375 89.625-104.259375 89.625-177.9 0-86.25-48.65625-160.81875-119.0625-195.7875-2.578125-1.36875-9.815625-4.546875-9.815625-4.546875a203.55 203.55 0 0 0-21.0375-7.753125l-11.0625-4.0125c-16.171875-5.953125-34.303125 2.86875-40.509375 19.6875s1.875 35.325 18.046875 41.25l18.234375 6.7125v0.290625c58.996875 19.44375 101.7375 76.63125 101.7375 144.16875 0 67.2375-42.375 124.21875-100.978125 143.90625h-20.109375a37.275 37.275 0 0 0 0 74.55h19.35v0.16875C831.846875 557.39479167 921.809375 659.16979167 924.96875 780.97916667a31.809375 31.809375 0 0 0-0.24375 3.871875v15.853125c-0.065625 1.33125-0.140625 2.6625-0.225 3.984375l-0.35625 5.484375h0.58125v6.028125a31.021875 31.021875 0 0 0 62.053125 0v-31.3125a31.2375 31.2375 0 0 0-0.721875-6.628125z m0 0" p-id="1079"></path></svg>