<!-- <svg role="img" xmlns="http://www.w3.org/2000/svg" width="48px" height="48px" viewBox="0 0 24 24" aria-labelledby="radioIconTitle" stroke="#2329D6" stroke-width="1" stroke-linecap="square" stroke-linejoin="miter" fill="none" color="#2329D6"> <title id="radioIconTitle">Radio</title> <path d="M5.44972845 6C2.18342385 9.2663046 2.18342385 14.7336954 5.44972845 18M8.59918369 8C6.46693877 10.1322449 6.46693877 13.8677551 8.59918369 16M18.5502716 18C21.8165761 14.7336954 21.8165761 9.2663046 18.5502716 6M15.4008163 16C17.5330612 13.8677551 17.5330612 10.1322449 15.4008163 8"/> <circle cx="12" cy="12" r="1"/> </svg> -->
<svg t="1651046710811" class="icon" viewBox="0 0 1024 1024" version="1.1" xmlns="http://www.w3.org/2000/svg" p-id="4811" width="200" height="200" stroke="#bebebe" stroke-width="1" stroke-linecap="square"><path d="M839.850667 176.64l4.010666 3.541333A467.882667 467.882667 0 0 1 981.333333 512c0 124.586667-48.554667 237.909333-127.829333 321.92l-9.642667 9.941333a42.666667 42.666667 0 0 1-60.330666-60.330666v-0.042667l8.917333-9.173333A382.677333 382.677333 0 0 0 896 512.042667a382.805333 382.805333 0 0 0-112.469333-271.530667 42.666667 42.666667 0 0 1 56.32-63.872z m-599.381334 3.541333a42.666667 42.666667 0 0 1 0 60.330667l-1.237333 1.237333-7.68 7.978667A382.677333 382.677333 0 0 0 128 512a382.805333 382.805333 0 0 0 112.469333 271.530667 42.666667 42.666667 0 0 1-60.330666 60.330666A467.84 467.84 0 0 1 42.666667 512.042667c0-129.408 52.352-246.570667 137.045333-331.477334l0.426667-0.426666a42.666667 42.666667 0 0 1 60.330666 0z m478.72 117.12l4.010667 3.541334a297.728 297.728 0 0 1 87.466667 211.2 297.6 297.6 0 0 1-79.104 202.496l-8.362667 8.704a42.666667 42.666667 0 0 1-60.330667-60.330667A212.650667 212.650667 0 0 0 725.333333 512c0-58.88-23.893333-112.213333-62.464-150.826667a42.666667 42.666667 0 0 1 56.32-63.914666z m-358.058666 3.541334a42.666667 42.666667 0 0 1 3.584 56.32l-3.584 4.053333A212.650667 212.650667 0 0 0 298.666667 512c0 55.210667 20.992 105.557333 55.424 143.445333l7.04 7.424A42.666667 42.666667 0 0 1 300.8 723.2 297.728 297.728 0 0 1 213.333333 512c0-82.474667 33.408-157.141333 87.466667-211.2 0 0.042667 0 0 0 0a42.666667 42.666667 0 0 1 60.330667 0zM512 384.042667a128 128 0 1 1 0 256 128 128 0 0 1 0-256z m0 85.333333a42.666667 42.666667 0 1 0 0 85.333333 42.666667 42.666667 0 0 0 0-85.333333z" p-id="4812"></path></svg>